<svg xmlns="http://www.w3.org/2000/svg" viewBox="0 0 792.19 172.85"><defs><style>.cls-1{fill:#fff;}</style></defs><g id="Layer_2" data-name="Layer 2"><g id="Layer_1-2" data-name="Layer 1"><path class="cls-1" d="M515.78,172.85h7.63V124.94h-14v31.69a14.71,14.71,0,0,1-8.7-13.43V124.94H486.45v18.47A29.38,29.38,0,0,0,515.78,172.85Z"/><path class="cls-1" d="M468.63,172.85h0a14,14,0,0,0,14-14V124.94h-14Z"/><path class="cls-1" d="M176.67,115.82V1.55h38.77V18.76h-19.7V47.12h15V64.61h-15V98.75h19.92v17.07Z"/><path class="cls-1" d="M235.79,115.82,220.23,1.55h16.3l9.27,77.59,8.63-77.59h17.25L255.92,115.82Z"/><path class="cls-1" d="M280.31,115.82V1.55h38.77V18.76h-19.7V47.12h15V64.61h-15V98.75h19.91v17.07Z"/><path class="cls-1" d="M327.92,115.82V1.55h13.42l17.68,55v-55h15.77V115.82H361.9L344.22,56.57v59.25Z"/><path class="cls-1" d="M410.58,117.51q-8.1,0-13.53-3.81t-8.2-11.78q-2.78-8-3.09-20.66L402.05,78a67.64,67.64,0,0,0,1,11.85c.6,3,1.45,5.18,2.55,6.49a5,5,0,0,0,4,2,3.73,3.73,0,0,0,3.89-2.68,17.64,17.64,0,0,0,.9-5.65,25.34,25.34,0,0,0-2.56-11.92,50.07,50.07,0,0,0-6.92-9.8l-7.46-8.61a53.87,53.87,0,0,1-8.25-12.48q-3.36-7-3.36-17.28,0-14.54,6.5-22.22T410,0Q417,0,421.17,3.1a19.64,19.64,0,0,1,6.4,8.12,40.81,40.81,0,0,1,3,10.58,88.29,88.29,0,0,1,.9,10.65l-16.4,2.68q-.1-5.09-.48-8.82A14.79,14.79,0,0,0,413,20.53a3.89,3.89,0,0,0-3.62-2.05q-2.67,0-3.89,3a15.37,15.37,0,0,0-1.23,5.93,20.77,20.77,0,0,0,2.29,10.37,55,55,0,0,0,6,8.39l7.14,8.32a62.59,62.59,0,0,1,9.53,14.39q3.89,8,3.89,19.89a37.28,37.28,0,0,1-2.77,14.6,24.65,24.65,0,0,1-7.83,10.37A19.35,19.35,0,0,1,410.58,117.51Z"/><path class="cls-1" d="M440.83,115.82V1.55h19.06V115.82Z"/><path class="cls-1" d="M468.63,115.82,484.93,1.55h21.73l16.08,114.27H505.16L502.29,91.7H489.61l-3,24.12ZM491.32,76.6h9.16L495.9,32Z"/><path class="cls-1" d="M0,148.06V172H149.12V128.08H50.49a45.75,45.75,0,0,1,41.82-27.27h56.81V56.07H91.65C41,56.07,0,97.25,0,148.06Z"/><path class="cls-1" d="M0,.18H0a43.82,43.82,0,0,0,43.74,43.9H149.12V.18Z"/><g id="Layer_2-2" data-name="Layer 2"><g id="Layer_1-2-2" data-name="Layer 1-2"><path class="cls-1" d="M683.9,88.19H702V70.55h19.7V37.87H683.9ZM702,50.43h1.65v8.45H702Z"/><polygon class="cls-1" points="722.34 37.85 741.22 61.85 741.22 37.85 722.34 37.85"/><path class="cls-1" d="M731.78,51.1c-2.11-2.67-3.94-5-5.51-7l-3.93-5V63h18.88c-1.05-1.33-2.36-3-3.91-5S733.91,53.76,731.78,51.1Z"/><path class="cls-1" d="M716.23,88.15h5.42V73.67q-1.81,5-3.17,8.58T716.23,88.15Z"/><path class="cls-1" d="M702.78,73.67V88.15h5.42c-.53-1.3-1.24-3.16-2.15-5.58S704.06,77.19,702.78,73.67Z"/><path class="cls-1" d="M712.21,80c-.68,1.81-1.29,3.39-1.81,4.74l-1.34,3.42h6.31c-.66-1.67-1.26-3.19-1.78-4.54S712.6,81.05,712.21,80Z"/><path class="cls-1" d="M741.41,80.43v7.72H722.53V63.87h18.88v7.69H732v.8h9.44v7.25H732v.82Z"/><path class="cls-1" d="M761.15,63.87H742.27l9.44,22.32Q761.15,63.74,761.15,63.87Z"/><path class="cls-1" d="M780.88,80.43v7.72H762V63.87h18.88v7.69h-9.44v.8h9.44v7.25h-9.44v.82Z"/><path class="cls-1" d="M702.52,89H721.4V104.8h-9.86l8.79,8.52H702.52Zm11.53,7.68h-4.19v.83h4.19Zm7.35,8.91v7.55l-7.83-7.55Z"/><path class="cls-1" d="M741.41,89,732,100.6,722.53,89Zm0,24.27H722.53l18.88-23Zm-18.88-1.19V90.33l8.92,10.86Z"/><path class="cls-1" d="M761.15,89v7.68h-5.5v16.59h-7.89V96.72h-5.49V89ZM746.9,113.31h-4.63V97.52h4.63Zm14.25-15.79v15.79h-4.64V97.52Z"/><path class="cls-1" d="M771,113.38h-9V89.11h9v8.08h.82V89.11h9v24.27h-9v-8.11H771Z"/><path class="cls-1" d="M722.53,114.21h4.63v24.27h-4.63Zm13.39,24.27H728V114.21h7.9Zm5.49,0h-4.63V114.21h4.63Z"/><path class="cls-1" d="M761.15,114.21v23.14l-18.88-23.14Zm0,24.27H742.27v-23l3.93,4.77q2.35,2.85,5.51,6.73t5.52,6.7C758.79,135.61,760.09,137.2,761.15,138.48Z"/><path class="cls-1" d="M773,130.76v-.82h-2.19v-7.29h10.12v15.83H762V114.21h18.88v7.61h-11v8.94Z"/></g></g><path class="cls-1" d="M677.73,22.55a4.58,4.58,0,0,1-2.67-.67,3.46,3.46,0,0,1-1.35-1.83,8.41,8.41,0,0,1-.39-2.68V11.84a8.75,8.75,0,0,1,.39-2.76,3.31,3.31,0,0,1,1.35-1.81,6,6,0,0,1,5.19-.08,2.93,2.93,0,0,1,1.29,1.56,6.56,6.56,0,0,1,.39,2.36v1.3h-2.72V11.07a10.6,10.6,0,0,0-.07-1.19,1.48,1.48,0,0,0-.37-.85,1.35,1.35,0,0,0-1-.32,1.41,1.41,0,0,0-1.06.34,1.6,1.6,0,0,0-.44.9,8.06,8.06,0,0,0-.09,1.27V18a6,6,0,0,0,.13,1.39,1.47,1.47,0,0,0,.49.82,1.51,1.51,0,0,0,1,.28,1.28,1.28,0,0,0,1-.34,1.69,1.69,0,0,0,.37-.89,9.23,9.23,0,0,0,.08-1.24v-1.4h2.72v1.24a7.38,7.38,0,0,1-.37,2.45A3.17,3.17,0,0,1,680.29,22,4.64,4.64,0,0,1,677.73,22.55Z"/><path class="cls-1" d="M687.08,22.51a4,4,0,0,1-2-.45,2.84,2.84,0,0,1-1.18-1.31,5.06,5.06,0,0,1-.39-2.09V14.94a5.06,5.06,0,0,1,.39-2.09,2.84,2.84,0,0,1,1.18-1.31,4,4,0,0,1,2-.45,4,4,0,0,1,2,.45,2.79,2.79,0,0,1,1.18,1.31,4.9,4.9,0,0,1,.4,2.09v3.72a4.9,4.9,0,0,1-.4,2.09,2.79,2.79,0,0,1-1.18,1.31A4,4,0,0,1,687.08,22.51Zm0-1.8a.78.78,0,0,0,.65-.25,1.24,1.24,0,0,0,.27-.68,6.91,6.91,0,0,0,.06-1V14.77a6.65,6.65,0,0,0-.06-.94,1.27,1.27,0,0,0-.27-.68.79.79,0,0,0-.65-.26.8.8,0,0,0-.65.26,1.46,1.46,0,0,0-.28.68,6.65,6.65,0,0,0-.06.94v4.06a6.91,6.91,0,0,0,.06,1,1.41,1.41,0,0,0,.28.68A.8.8,0,0,0,687.1,20.71Z"/><path class="cls-1" d="M697.2,17V15.19h4.62V17Z"/><path class="cls-1" d="M708.74,22.34V6.81h4.56a4.46,4.46,0,0,1,2.27.52,3.14,3.14,0,0,1,1.29,1.51,6.23,6.23,0,0,1,.41,2.38,5,5,0,0,1-.52,2.45A3.06,3.06,0,0,1,715.3,15a5.28,5.28,0,0,1-2.19.42h-1.53v6.9Zm2.84-8.89h1.07a2.64,2.64,0,0,0,1.2-.23,1.15,1.15,0,0,0,.59-.7,4.27,4.27,0,0,0,.17-1.32,6.29,6.29,0,0,0-.13-1.37,1.13,1.13,0,0,0-.54-.77,2.51,2.51,0,0,0-1.29-.25h-1.07Z"/><path class="cls-1" d="M722,22.51a4,4,0,0,1-2-.45,2.84,2.84,0,0,1-1.18-1.31,5.06,5.06,0,0,1-.39-2.09V14.94a5.06,5.06,0,0,1,.39-2.09A2.84,2.84,0,0,1,720,11.54a4,4,0,0,1,2-.45,4,4,0,0,1,2,.45,2.79,2.79,0,0,1,1.18,1.31,4.9,4.9,0,0,1,.4,2.09v3.72a4.9,4.9,0,0,1-.4,2.09A2.79,2.79,0,0,1,724,22.06,4,4,0,0,1,722,22.51Zm0-1.8a.78.78,0,0,0,.65-.25,1.32,1.32,0,0,0,.27-.68,6.91,6.91,0,0,0,.06-1V14.77a6.65,6.65,0,0,0-.06-.94,1.36,1.36,0,0,0-.27-.68.79.79,0,0,0-.65-.26.8.8,0,0,0-.65.26,1.46,1.46,0,0,0-.28.68,6.65,6.65,0,0,0-.06.94v4.06a6.91,6.91,0,0,0,.06,1,1.41,1.41,0,0,0,.28.68A.8.8,0,0,0,722,20.71Z"/><path class="cls-1" d="M728.4,22.34l-1.7-11.08h2.16l1,7.19L731,11.26h1.94L734,18.52l1.05-7.26h2l-1.74,11.08h-2.2l-1.23-7-1.29,7Z"/><path class="cls-1" d="M742,22.51a3.93,3.93,0,0,1-2-.47,2.78,2.78,0,0,1-1.16-1.38,5.77,5.77,0,0,1-.37-2.19V15.13a5.79,5.79,0,0,1,.37-2.22,2.71,2.71,0,0,1,1.17-1.36,4,4,0,0,1,2-.46,3.59,3.59,0,0,1,2.06.5A2.72,2.72,0,0,1,745.07,13a7.47,7.47,0,0,1,.31,2.31v1.57H741V19.1a3.09,3.09,0,0,0,.1.88.85.85,0,0,0,.34.5,1,1,0,0,0,.55.15.89.89,0,0,0,.56-.16.9.9,0,0,0,.3-.48,2.57,2.57,0,0,0,.1-.79v-.92h2.43V19a3.65,3.65,0,0,1-.84,2.59A3.36,3.36,0,0,1,742,22.51Zm-1-6.88h1.95V14.58a3.33,3.33,0,0,0-.1-.93.91.91,0,0,0-.3-.52,1,1,0,0,0-.6-.16.81.81,0,0,0-.55.17,1.07,1.07,0,0,0-.31.57,5.66,5.66,0,0,0-.09,1.15Z"/><path class="cls-1" d="M747.2,22.34V11.26h2.61V13A4.57,4.57,0,0,1,751,11.56a2.05,2.05,0,0,1,1.27-.43h.2l.2,0v2.71a3.39,3.39,0,0,0-.51-.17,2.62,2.62,0,0,0-.57-.06,1.75,1.75,0,0,0-.93.25,2.53,2.53,0,0,0-.81.82v7.63Z"/><path class="cls-1" d="M757.27,22.51a4,4,0,0,1-2-.47,2.78,2.78,0,0,1-1.16-1.38,6,6,0,0,1-.37-2.19V15.13a6,6,0,0,1,.37-2.22,2.71,2.71,0,0,1,1.17-1.36,4,4,0,0,1,2-.46,3.61,3.61,0,0,1,2.06.5,2.7,2.7,0,0,1,1,1.44,7.45,7.45,0,0,1,.32,2.31v1.57h-4.41V19.1a3.09,3.09,0,0,0,.1.88.9.9,0,0,0,.34.5,1,1,0,0,0,.56.15.86.86,0,0,0,.55-.16,1,1,0,0,0,.31-.48,3,3,0,0,0,.09-.79v-.92h2.44V19a3.61,3.61,0,0,1-.85,2.59A3.34,3.34,0,0,1,757.27,22.51Zm-1-6.88h2V14.58a3.83,3.83,0,0,0-.09-.93,1,1,0,0,0-.31-.52.94.94,0,0,0-.59-.16.83.83,0,0,0-.56.17,1.07,1.07,0,0,0-.31.57,5.66,5.66,0,0,0-.09,1.15Z"/><path class="cls-1" d="M765,22.51a2.3,2.3,0,0,1-2-.94,5.15,5.15,0,0,1-.68-3V15.17a7.71,7.71,0,0,1,.26-2.07,3.21,3.21,0,0,1,.83-1.47,2.17,2.17,0,0,1,1.55-.54,2.57,2.57,0,0,1,1.11.24,4,4,0,0,1,.92.62V6.81h2.61V22.34h-2.61v-.79a3.55,3.55,0,0,1-.93.7A2.34,2.34,0,0,1,765,22.51Zm1-1.8a1.33,1.33,0,0,0,.48-.1,2.53,2.53,0,0,0,.55-.27V13.23a2.51,2.51,0,0,0-.49-.25,1.55,1.55,0,0,0-.56-.11.79.79,0,0,0-.78.51,3.22,3.22,0,0,0-.22,1.23v4.14a6,6,0,0,0,.08,1,1.41,1.41,0,0,0,.3.7A.79.79,0,0,0,765.91,20.71Z"/><path class="cls-1" d="M781,22.51a2.38,2.38,0,0,1-1.14-.29,4.33,4.33,0,0,1-1-.71v.83H776.2V6.81h2.61V12.1a4.26,4.26,0,0,1,1-.73,2.7,2.7,0,0,1,1.22-.28,2.06,2.06,0,0,1,1.23.34,2.36,2.36,0,0,1,.74.91,4.49,4.49,0,0,1,.38,1.21,7.67,7.67,0,0,1,.1,1.24v3.75a7,7,0,0,1-.26,2,3,3,0,0,1-.82,1.43A2.07,2.07,0,0,1,781,22.51Zm-1-1.82a.7.7,0,0,0,.62-.28,1.61,1.61,0,0,0,.27-.75,7.91,7.91,0,0,0,.07-1v-4a5.28,5.28,0,0,0-.08-.93,1.42,1.42,0,0,0-.28-.66.76.76,0,0,0-.62-.25,1.23,1.23,0,0,0-.59.15,3.47,3.47,0,0,0-.54.31v7a2.37,2.37,0,0,0,.55.28A1.53,1.53,0,0,0,780,20.69Z"/><path class="cls-1" d="M785.4,25.35V23.47a6.32,6.32,0,0,0,1.09-.08,1.15,1.15,0,0,0,.62-.27.73.73,0,0,0,.19-.53,3.57,3.57,0,0,0-.13-.79q-.12-.54-.27-1.17l-2.44-9.37H787l1.44,7.3,1.25-7.3h2.51L789.6,22.78a3.3,3.3,0,0,1-.71,1.53,2.78,2.78,0,0,1-1.25.8,5.67,5.67,0,0,1-1.74.24Z"/><rect class="cls-1" x="584.42" y="15.35" width="2" height="145.79"/><path class="cls-1" d="M676.78,168.85V154.27h4.28a4.11,4.11,0,0,1,2.14.49,2.88,2.88,0,0,1,1.2,1.41,5.76,5.76,0,0,1,.39,2.24,4.67,4.67,0,0,1-.49,2.3,2.82,2.82,0,0,1-1.36,1.26,4.82,4.82,0,0,1-2.06.4h-1.44v6.48Zm2.66-8.35h1a2.5,2.5,0,0,0,1.13-.21,1.1,1.1,0,0,0,.55-.66,3.81,3.81,0,0,0,.16-1.24,5.55,5.55,0,0,0-.12-1.28,1.12,1.12,0,0,0-.5-.73,2.4,2.4,0,0,0-1.22-.24h-1Z"/><path class="cls-1" d="M687.2,168.85l-1.6-10.4h2l.92,6.75,1.08-6.75h1.82l1,6.82,1-6.82h1.92l-1.64,10.4h-2.07l-1.15-6.57-1.2,6.57Z"/><path class="cls-1" d="M696.94,168.85V154.27h1.85l3.55,8.32v-8.32h2.19v14.58h-1.76l-3.56-8.71v8.71Z"/><path class="cls-1" d="M714.74,167.54v1.31h-8.31v-1.31Zm-.18-10.83V158h-7.94v-1.3Zm-.61,5.21v1.29h-6.73v-1.29Z"/><path class="cls-1" d="M717.66,168.85l-2.07-10.4H718l1.06,7.47,1.05-7.47h2.35l-2.07,10.4Z"/><path class="cls-1" d="M731.73,167.54v1.31h-8.31v-1.31Zm-.17-10.83V158h-7.95v-1.3Zm-.62,5.21v1.29h-6.73v-1.29Z"/><path class="cls-1" d="M733.35,168.85v-10.4h2.45v1.6a4.36,4.36,0,0,1,1.08-1.32,2,2,0,0,1,1.19-.41h.19l.19,0v2.53a3.37,3.37,0,0,0-.48-.15,2.33,2.33,0,0,0-.53-.06,1.72,1.72,0,0,0-.88.23,2.47,2.47,0,0,0-.76.78v7.16Z"/><path class="cls-1" d="M741.85,168.85v-5.56l-3-9h2.48l1.8,5.78,1.69-5.78h2.43l-2.91,9v5.56Z"/><path class="cls-1" d="M748.83,168.85l2.9-12.67h-3.94v-1.91h6.39v1.53l-2.94,13Z"/><path class="cls-1" d="M755.82,168.85V154.27h2.44v5.17a4.3,4.3,0,0,1,1.18-.85,3.26,3.26,0,0,1,1.4-.31,1.55,1.55,0,0,1,1,.32,1.84,1.84,0,0,1,.55.84,3.39,3.39,0,0,1,.18,1.13v8.28h-2.44v-7.79a1.38,1.38,0,0,0-.15-.72.58.58,0,0,0-.56-.26,1.34,1.34,0,0,0-.56.15,2.67,2.67,0,0,0-.61.38v8.24Z"/><path class="cls-1" d="M766.17,168.85V157l-.43.17c-.21.07-.44.14-.69.2l-.69.19a3,3,0,0,0-.44.15v-1.86l.63-.25.8-.37a6.8,6.8,0,0,0,.79-.46,3.16,3.16,0,0,0,.6-.52h1.91v14.58Z"/><path class="cls-1" d="M771.44,168.85v-10.4h2.45v1a5.06,5.06,0,0,1,1.18-.87,2.81,2.81,0,0,1,1.34-.34,1.54,1.54,0,0,1,1,.32,1.78,1.78,0,0,1,.56.84,3.39,3.39,0,0,1,.18,1.13v8.28h-2.45v-7.79a1.39,1.39,0,0,0-.14-.72.59.59,0,0,0-.56-.26,1.23,1.23,0,0,0-.55.15,3.05,3.05,0,0,0-.58.36v8.26Z"/><path class="cls-1" d="M783.79,169.05a3.91,3.91,0,0,1-2.29-.61,3.36,3.36,0,0,1-1.21-1.74,8.46,8.46,0,0,1-.37-2.66v-4.89a8.92,8.92,0,0,1,.36-2.7,3.12,3.12,0,0,1,1.27-1.74,4.5,4.5,0,0,1,2.51-.6,4.89,4.89,0,0,1,2.38.5,2.88,2.88,0,0,1,1.26,1.45,6,6,0,0,1,.39,2.3v.75h-2.54v-.83a6,6,0,0,0-.1-1.2,1.29,1.29,0,0,0-.39-.77,1.48,1.48,0,0,0-1-.26,1.35,1.35,0,0,0-1,.34,1.7,1.7,0,0,0-.4.9,9.3,9.3,0,0,0-.08,1.23v6.1a5.63,5.63,0,0,0,.13,1.31,1.55,1.55,0,0,0,.46.86,1.45,1.45,0,0,0,1,.3,1.38,1.38,0,0,0,1-.33,1.76,1.76,0,0,0,.47-.9,6,6,0,0,0,.14-1.37v-1.36H784.2v-1.68h4v7.4h-1.71l-.2-1.44a2.78,2.78,0,0,1-.87,1.18A2.49,2.49,0,0,1,783.79,169.05Z"/></g></g></svg>